<svg xmlns="http://www.w3.org/2000/svg" version="1.1" xmlns:xlink="http://www.w3.org/1999/xlink" xmlns:svgjs="http://svgjs.com/svgjs" width="1441" height="554" preserveAspectRatio="none" viewBox="0 0 1441 554"><g mask="url(&quot;#SvgjsMask1101&quot;)" fill="none"><rect width="1441" height="554" x="0" y="0" fill="rgba(39, 16, 91, 1)"></rect><path d="M0,381.892C90.174,397.414,181.061,447.032,266.863,415.247C356.953,381.873,424.562,299.456,461.703,210.853C498.323,123.494,481.301,26.487,469.209,-67.462C456.946,-162.744,465.06,-277.626,390.963,-338.771C316.226,-400.444,200.405,-338.581,107.46,-365.976C14.361,-393.417,-49.983,-511.612,-145.939,-497.022C-240.341,-482.669,-287.569,-375.002,-343.27,-297.445C-394.431,-226.21,-448.721,-152.953,-455.829,-65.538C-462.751,19.59,-426.011,101.313,-381.626,174.283C-340.831,241.352,-282.66,295.013,-213.702,332.527C-148.153,368.186,-73.54,369.234,0,381.892" fill="#190a3b"></path><path d="M1441 1042.609C1574.887 1072.142 1702.863 1212.3690000000001 1827.76 1155.81 1947.6770000000001 1101.5059999999999 1944.437 926.5699999999999 1978.21 799.336 2006.883 691.316 2040.147 579.694 2009.191 472.306 1979.9270000000001 370.78700000000003 1888.834 305.409 1814.259 230.56900000000002 1744.971 161.03500000000003 1681.506 82.88499999999999 1588.85 50.47000000000003 1493.654 17.16700000000003 1391.596 29.650999999999954 1292.4279999999999 48.012 1183.791 68.12599999999998 1064.33 81.57600000000002 988.2339999999999 161.676 911.235 242.726 889.204 362.619 887.355 474.398 885.64 578.085 932.299 672.366 978.2470000000001 765.332 1022.8879999999999 855.653 1063.855 954.587 1150.279 1006.371 1235.781 1057.603 1343.664 1021.1379999999999 1441 1042.609" fill="#35167b"></path></g><defs><mask id="SvgjsMask1101"><rect width="1441" height="554" fill="#ffffff"></rect></mask></defs></svg>